<?xml version="1.0" standalone="no"?>
<!DOCTYPE svg PUBLIC "-//W3C//DTD SVG 20010904//EN"
 "http://www.w3.org/TR/2001/REC-SVG-20010904/DTD/svg10.dtd">
<svg version="1.0" xmlns="http://www.w3.org/2000/svg"
 width="512.000000pt" height="512.000000pt" viewBox="0 0 512.000000 512.000000"
 preserveAspectRatio="xMidYMid meet">

<g transform="translate(0.000000,512.000000) scale(0.100000,-0.100000)"
fill="#000000" stroke="none">
<path d="M610 4961 c-82 -25 -150 -93 -175 -175 -28 -88 -33 -93 -104 -115
-97 -30 -134 -59 -173 -138 -31 -64 -33 -73 -33 -178 0 -103 2 -114 31 -175
84 -174 219 -245 389 -205 50 12 82 15 95 9 17 -8 83 -70 428 -401 50 -49 92
-95 92 -101 0 -16 -31 -27 -115 -42 -79 -13 -85 -15 -250 -66 -179 -55 -278
-103 -309 -150 -47 -73 -43 -160 10 -223 52 -63 114 -78 511 -130 84 -11 161
-25 172 -31 22 -11 28 -30 61 -180 41 -188 108 -319 265 -516 52 -65 95 -125
95 -133 0 -17 -578 -596 -760 -762 -63 -57 -137 -125 -165 -151 -68 -63 -87
-69 -166 -52 -82 17 -105 17 -165 -1 -80 -24 -138 -76 -182 -163 -36 -74 -37
-78 -37 -191 0 -109 2 -120 30 -176 36 -72 88 -114 171 -139 84 -25 84 -25
126 -108 41 -80 89 -137 141 -165 24 -14 54 -18 127 -17 80 0 105 5 161 28
136 56 193 135 192 265 0 42 -8 105 -17 139 l-17 64 24 31 c13 18 76 86 140
152 254 265 455 449 485 443 11 -2 24 -37 44 -117 35 -148 68 -211 148 -291
74 -73 159 -126 273 -170 127 -49 197 -61 397 -67 163 -4 197 -2 289 17 351
72 567 259 618 533 9 52 20 87 28 87 6 0 47 -37 90 -82 44 -46 174 -180 291
-298 116 -118 214 -225 218 -237 4 -13 -2 -51 -15 -93 -49 -164 7 -291 161
-364 58 -28 77 -31 175 -34 105 -3 113 -2 165 25 61 32 90 69 121 154 l21 57
96 47 c59 28 111 61 133 85 144 151 81 473 -112 569 -69 35 -130 40 -229 19
-71 -14 -79 -10 -217 117 -126 117 -117 108 -309 296 -220 216 -514 524 -514
539 0 6 15 27 33 47 165 187 275 392 358 668 30 100 40 122 61 132 14 7 79 17
144 23 268 23 476 70 526 117 68 65 55 187 -29 264 -66 62 -297 146 -536 195
-65 13 -123 26 -128 29 -19 12 -7 34 44 81 28 26 116 109 195 183 292 277 270
262 354 242 64 -14 156 -14 199 1 182 62 295 331 213 508 -33 72 -107 141
-181 170 -32 12 -67 25 -79 30 -14 5 -25 26 -36 66 -32 114 -112 196 -205 210
-179 27 -373 -67 -440 -212 -36 -79 -40 -146 -14 -231 32 -105 55 -72 -296
-414 -66 -66 -125 -119 -130 -119 -4 0 -33 23 -63 51 -199 184 -380 287 -605
345 -105 28 -120 29 -325 28 -192 0 -228 -3 -335 -26 -272 -58 -477 -163 -688
-351 l-77 -70 -53 54 c-172 177 -383 403 -391 419 -6 13 -3 41 9 82 35 127 19
229 -49 305 -90 100 -310 169 -426 134z m3884 -165 c53 -22 69 -63 70 -176 l1
-95 91 3 c110 5 150 -10 182 -66 46 -82 38 -168 -23 -240 -63 -75 -154 -96
-268 -62 -71 21 -78 22 -100 7 -14 -9 -144 -131 -290 -273 -279 -269 -327
-310 -351 -301 -20 8 -116 199 -116 232 0 30 18 49 210 220 372 332 363 320
319 456 -24 73 -22 134 6 193 23 49 80 104 119 116 38 11 104 5 150 -14z
m-3648 -11 c89 -44 111 -128 66 -248 -12 -32 -22 -70 -22 -85 1 -62 39 -108
314 -384 152 -152 276 -282 276 -288 0 -18 -97 -205 -114 -219 -20 -17 -18
-19 -388 340 -164 160 -295 279 -305 279 -10 -1 -43 -9 -73 -20 -67 -24 -101
-25 -169 -4 -64 19 -135 80 -152 131 -6 19 -9 60 -7 91 5 51 9 60 46 93 45 39
75 49 156 49 28 0 56 4 62 8 6 4 14 34 18 67 21 173 153 259 292 190z m1839
-535 c234 -27 405 -84 574 -194 150 -96 389 -362 356 -395 -6 -6 -38 -6 -85 0
-575 72 -1356 70 -1874 -7 -119 -17 -129 -13 -99 48 52 108 192 256 325 346
249 168 513 234 803 202z m420 -815 c299 -25 488 -50 720 -97 294 -59 715
-193 715 -227 0 -19 -74 -49 -150 -60 -156 -22 -368 -42 -415 -39 -45 3 -50 6
-59 33 -20 68 -28 81 -62 104 -56 39 -362 111 -599 141 -443 57 -987 53 -1417
-11 -205 -30 -479 -99 -532 -134 -14 -9 -33 -38 -42 -63 -29 -79 -16 -75 -234
-69 -196 5 -283 18 -357 54 -20 9 -33 22 -31 31 4 19 123 71 293 127 313 103
692 175 1115 210 218 18 843 18 1055 0z m-15 -204 c366 -43 659 -112 711 -167
22 -24 24 -33 22 -117 -6 -213 -69 -415 -182 -587 -52 -80 -194 -223 -286
-290 -242 -175 -506 -261 -798 -261 -341 1 -621 113 -848 340 -160 160 -260
335 -316 556 -30 119 -55 332 -42 356 9 18 46 33 164 68 160 47 370 83 610
105 177 16 816 14 965 -3z m-1227 -1305 c9 -7 17 -26 17 -41 0 -36 -59 -273
-76 -307 -7 -14 -78 -89 -156 -165 -78 -76 -165 -160 -193 -188 -39 -38 -404
-390 -582 -562 -38 -36 -39 -67 -5 -141 44 -97 55 -144 42 -190 -17 -67 -73
-102 -158 -102 -98 1 -149 54 -182 190 -24 100 -22 98 -115 102 -90 3 -118 16
-159 71 -29 40 -30 167 0 217 34 58 76 80 156 80 38 0 84 -7 105 -15 49 -21
82 -19 125 8 32 19 258 235 738 701 355 346 366 356 396 356 16 0 37 -7 47
-14z m1591 -98 c201 -184 396 -371 761 -729 116 -114 224 -214 242 -223 38
-19 79 -20 170 -4 138 23 220 -15 243 -113 22 -92 -7 -188 -66 -220 -20 -10
-56 -13 -126 -12 -115 3 -109 8 -128 -120 -18 -131 -57 -177 -149 -177 -66 0
-119 20 -152 58 -28 32 -29 37 -23 95 4 34 17 83 30 109 31 61 31 123 2 166
-13 17 -217 223 -455 457 -477 470 -439 423 -481 605 -31 132 -35 169 -22 185
24 29 54 15 154 -77z m-1349 -23 c30 -13 58 -31 61 -40 8 -20 -25 -156 -42
-174 -15 -17 -52 -7 -144 37 -40 20 -56 33 -58 50 -4 25 25 129 42 150 13 18
69 9 141 -23z m1103 23 c14 -18 46 -173 39 -192 -7 -19 -135 -59 -174 -54 -27
3 -28 6 -42 91 -18 103 -17 104 74 141 70 28 89 31 103 14z m-824 -99 c72 -12
137 -26 144 -31 18 -15 17 -177 -2 -184 -15 -6 -292 23 -307 32 -22 13 4 204
28 204 4 0 66 -9 137 -21z m533 13 c13 -8 44 -158 36 -178 -2 -7 -14 -15 -26
-18 -48 -11 -271 -37 -283 -32 -10 4 -14 29 -14 95 0 104 -13 93 143 121 119
21 128 22 144 12z m-908 -215 c46 -18 89 -40 94 -49 13 -21 -4 -183 -22 -201
-17 -17 -140 26 -178 63 -35 35 -44 65 -36 135 7 61 18 85 41 84 9 0 55 -15
101 -32z m1270 -8 c16 -47 13 -85 -9 -129 -24 -46 -46 -62 -118 -86 -46 -14
-55 -15 -67 -3 -16 17 -28 159 -16 178 10 16 142 68 178 70 15 1 24 -8 32 -30z
m-909 -79 c79 -11 150 -25 157 -32 18 -14 18 -171 1 -186 -16 -13 -328 25
-346 42 -18 17 2 166 25 184 9 6 17 12 18 12 0 0 65 -9 145 -20z m604 3 c2
-10 7 -52 11 -94 5 -57 3 -78 -7 -86 -7 -6 -83 -20 -168 -32 -184 -24 -180
-26 -180 84 0 42 5 78 13 87 8 12 51 22 142 36 172 25 183 26 189 5z m-998
-213 c363 -125 815 -129 1186 -10 112 35 125 36 133 10 10 -31 -12 -128 -45
-198 -95 -204 -392 -336 -714 -319 -327 18 -579 168 -646 384 -20 65 -26 134
-13 146 11 12 37 8 99 -13z"/>
<path d="M1888 3044 c-75 -18 -122 -42 -180 -93 -182 -161 -182 -495 -1 -679
186 -188 532 -160 669 53 131 205 73 527 -119 659 -100 69 -240 92 -369 60z"/>
<path d="M3045 3046 c-114 -33 -192 -84 -245 -161 -67 -98 -92 -254 -60 -385
38 -159 152 -287 299 -335 72 -23 203 -17 285 15 72 28 171 121 210 198 29 57
56 177 56 245 0 61 -26 171 -52 225 -36 73 -122 155 -193 182 -76 29 -226 37
-300 16z"/>
<path d="M2525 2311 c-111 -29 -161 -103 -153 -225 7 -119 63 -176 179 -184
92 -7 169 31 204 99 24 45 20 165 -7 219 -36 72 -138 113 -223 91z"/>
</g>
</svg>
